<?xml version="1.0" encoding="UTF-8" standalone="no"?>
<svg
   width="450pt"
   height="300pt"
   viewBox="0 0 449.99999 299.99999"
   version="1.1"
   id="svg1414"
   sodipodi:docname="schema.svg"
   inkscape:version="1.2 (dc2aeda, 2022-05-15)"
   xmlns:inkscape="http://www.inkscape.org/namespaces/inkscape"
   xmlns:sodipodi="http://sodipodi.sourceforge.net/DTD/sodipodi-0.dtd"
   xmlns:xlink="http://www.w3.org/1999/xlink"
   xmlns="http://www.w3.org/2000/svg"
   xmlns:svg="http://www.w3.org/2000/svg"
   xmlns:rdf="http://www.w3.org/1999/02/22-rdf-syntax-ns#"
   xmlns:cc="http://creativecommons.org/ns#"
   xmlns:dc="http://purl.org/dc/elements/1.1/">
  <sodipodi:namedview
     id="namedview1416"
     pagecolor="#ffffff"
     bordercolor="#000000"
     borderopacity="0.25"
     inkscape:showpageshadow="2"
     inkscape:pageopacity="0.0"
     inkscape:pagecheckerboard="0"
     inkscape:deskcolor="#d1d1d1"
     inkscape:document-units="pt"
     showgrid="false"
     inkscape:zoom="0.83178789"
     inkscape:cx="265.09162"
     inkscape:cy="161.09876"
     inkscape:window-width="1512"
     inkscape:window-height="916"
     inkscape:window-x="0"
     inkscape:window-y="38"
     inkscape:window-maximized="0"
     inkscape:current-layer="g3767" />
  <metadata
     id="metadata1001">
    <rdf:RDF>
      <cc:Work>
        <dc:type
           rdf:resource="http://purl.org/dc/dcmitype/StillImage" />
        <dc:date>2024-01-19T18:19:27.913605</dc:date>
        <dc:format>image/svg+xml</dc:format>
        <dc:creator>
          <cc:Agent>
            <dc:title>Matplotlib v3.8.0, https://matplotlib.org/</dc:title>
          </cc:Agent>
        </dc:creator>
      </cc:Work>
    </rdf:RDF>
  </metadata>
  <defs
     id="defs1005">
    <marker
       style="overflow:visible"
       id="Arrow1"
       refX="0"
       refY="0"
       orient="auto-start-reverse"
       inkscape:stockid="Arrow1"
       markerWidth="3.8535328"
       markerHeight="6.7071066"
       viewBox="0 0 3.8535327 6.7071068"
       inkscape:isstock="true"
       inkscape:collect="always"
       preserveAspectRatio="xMidYMid">
      <path
         style="fill:none;stroke:context-stroke;stroke-width:1;stroke-linecap:butt"
         d="M 3,-3 0,0 3,3"
         id="path5057"
         transform="rotate(180,0.125,0)"
         sodipodi:nodetypes="ccc" />
    </marker>
    <style
       type="text/css"
       id="style1003">*{stroke-linejoin: round; stroke-linecap: butt}</style>
    <clipPath
       id="p4c035d4894">
      <rect
         x="28.942188"
         y="28.118126"
         width="292.20374"
         height="292.20374"
         id="rect3587" />
    </clipPath>
    <clipPath
       id="clipPath3727">
      <rect
         x="28.942188"
         y="28.118126"
         width="292.20374"
         height="292.20374"
         id="rect3725" />
    </clipPath>
    <path
       id="mae3f675ecd"
       d="M -3,0 H 3 M 0,3 v -6"
       style="stroke:#000000;stroke-width:1.5" />
    <path
       id="m2c9f9eb6f6"
       d="M 0,0 V 3.5"
       style="stroke:#000000;stroke-width:0.8" />
    <path
       id="DejaVuSans-2212-8"
       d="M 678,2272 H 4684 V 1741 H 678 Z"
       transform="scale(0.015625)" />
    <path
       id="DejaVuSans-33-4"
       d="m 2597,2516 q 453,-97 707,-404 255,-306 255,-756 0,-690 -475,-1069 -475,-378 -1350,-378 -293,0 -604,58 -311,58 -642,174 v 609 q 262,-153 574,-231 313,-78 654,-78 593,0 904,234 311,234 311,681 0,413 -289,645 -289,233 -804,233 h -544 v 519 h 569 q 465,0 712,186 247,186 247,536 0,359 -255,551 -254,193 -729,193 -260,0 -557,-57 -297,-56 -653,-174 v 562 q 360,100 674,150 314,50 592,50 719,0 1137,-327 419,-326 419,-882 0,-388 -222,-655 -222,-267 -631,-370 z"
       transform="scale(0.015625)" />
    <path
       id="DejaVuSans-32-8"
       d="M 1228,531 H 3431 V 0 H 469 v 531 q 359,372 979,998 621,627 780,809 303,340 423,576 121,236 121,464 0,372 -261,606 -261,235 -680,235 -297,0 -627,-103 -329,-103 -704,-313 v 638 q 381,153 712,231 332,78 607,78 725,0 1156,-363 431,-362 431,-968 0,-288 -108,-546 -107,-257 -392,-607 -78,-91 -497,-524 Q 1991,1309 1228,531 Z"
       transform="scale(0.015625)" />
    <path
       id="DejaVuSans-31-7"
       d="M 794,531 H 1825 V 4091 L 703,3866 v 575 l 1116,225 h 631 V 531 H 3481 V 0 H 794 Z"
       transform="scale(0.015625)" />
    <path
       id="DejaVuSans-30-1"
       d="m 2034,4250 q -487,0 -733,-480 -245,-479 -245,-1442 0,-959 245,-1439 246,-480 733,-480 491,0 736,480 246,480 246,1439 0,963 -246,1442 -245,480 -736,480 z m 0,500 q 785,0 1199,-621 414,-620 414,-1801 0,-1178 -414,-1799 -414,-620 -1199,-620 -784,0 -1198,620 -414,621 -414,1799 0,1181 414,1801 414,621 1198,621 z"
       transform="scale(0.015625)" />
    <path
       id="m67405fe5c2"
       d="M 0,0 H -3.5"
       style="stroke:#000000;stroke-width:0.8" />
    <path
       id="DejaVuSans-49-8"
       d="m 628,4666 h 631 V 0 H 628 Z"
       transform="scale(0.015625)" />
    <path
       id="DejaVuSans-44-7"
       d="M 1259,4147 V 519 h 763 q 966,0 1414,437 448,438 448,1382 0,937 -448,1373 -448,436 -1414,436 z m -631,519 h 1297 q 1356,0 1990,-564 635,-564 635,-1764 Q 4550,1131 3912,565 3275,0 1925,0 H 628 Z"
       transform="scale(0.015625)" />
    <path
       id="DejaVuSans-4c-6"
       d="m 628,4666 h 631 V 531 H 3531 V 0 H 628 Z"
       transform="scale(0.015625)" />
    <path
       id="DejaVuSans-20-0"
       transform="scale(0.015625)"
       d="" />
    <path
       id="DejaVuSans-28-0"
       d="m 1984,4856 q -418,-718 -622,-1422 -203,-703 -203,-1425 0,-721 205,-1429 205,-708 620,-1424 h -500 q -468,735 -701,1444 -233,709 -233,1409 0,697 231,1403 232,707 703,1444 z"
       transform="scale(0.015625)" />
    <path
       id="DejaVuSans-64-9"
       d="m 2906,2969 v 1894 h 575 V 0 H 2906 V 525 Q 2725,213 2448,61 2172,-91 1784,-91 1150,-91 751,415 353,922 353,1747 q 0,825 398,1331 399,506 1033,506 388,0 664,-152 277,-151 458,-463 z M 947,1747 q 0,-634 261,-995 261,-361 717,-361 456,0 718,361 263,361 263,995 0,634 -263,995 -262,361 -718,361 -456,0 -717,-361 -261,-361 -261,-995 z"
       transform="scale(0.015625)" />
    <path
       id="DejaVuSans-69-5"
       d="m 603,3500 h 575 V 0 H 603 Z m 0,1363 h 575 V 4134 H 603 Z"
       transform="scale(0.015625)" />
    <path
       id="DejaVuSans-72-6"
       d="m 2631,2963 q -97,56 -211,82 -114,27 -251,27 -488,0 -749,-317 -261,-317 -261,-911 V 0 H 581 v 3500 h 578 v -544 q 182,319 472,473 291,155 707,155 59,0 131,-8 72,-7 159,-23 z"
       transform="scale(0.015625)" />
    <path
       id="DejaVuSans-65-2"
       d="M 3597,1894 V 1613 H 953 q 38,-594 358,-905 320,-311 892,-311 331,0 642,81 311,81 618,244 V 178 Q 3153,47 2828,-22 2503,-91 2169,-91 1331,-91 842,396 353,884 353,1716 q 0,859 464,1363 464,505 1252,505 706,0 1117,-455 411,-454 411,-1235 z m -575,169 q -6,471 -264,752 -258,282 -683,282 -481,0 -770,-272 -289,-272 -333,-766 z"
       transform="scale(0.015625)" />
    <path
       id="DejaVuSans-63-8"
       d="m 3122,3366 v -538 q -244,135 -489,202 -245,67 -495,67 -560,0 -870,-355 -309,-354 -309,-995 0,-641 309,-996 310,-354 870,-354 250,0 495,67 245,67 489,202 V 134 Q 2881,22 2623,-34 2366,-91 2075,-91 1284,-91 818,406 353,903 353,1747 q 0,856 470,1346 471,491 1290,491 265,0 518,-55 253,-54 491,-163 z"
       transform="scale(0.015625)" />
    <path
       id="DejaVuSans-74-5"
       d="M 1172,4494 V 3500 H 2356 V 3053 H 1172 V 1153 q 0,-428 117,-550 117,-122 477,-122 h 590 V 0 H 1766 Q 1100,0 847,248 594,497 594,1153 V 3053 H 172 v 447 h 422 v 994 z"
       transform="scale(0.015625)" />
    <path
       id="DejaVuSans-29-9"
       d="m 513,4856 h 500 q 468,-737 701,-1444 233,-706 233,-1403 0,-700 -233,-1409 -233,-709 -701,-1444 H 513 q 415,716 620,1424 205,708 205,1429 0,722 -205,1425 -205,704 -620,1422 z"
       transform="scale(0.015625)" />
    <path
       id="DejaVuSans-5b-4"
       d="M 550,4863 H 1875 V 4416 H 1125 V -397 h 750 V -844 H 550 Z"
       transform="scale(0.015625)" />
    <path
       id="DejaVuSans-6f-3"
       d="m 1959,3097 q -462,0 -731,-361 -269,-361 -269,-989 0,-628 267,-989 268,-361 733,-361 460,0 728,362 269,363 269,988 0,622 -269,986 -268,364 -728,364 z m 0,487 q 750,0 1178,-488 429,-487 429,-1349 Q 3566,888 3137,398 2709,-91 1959,-91 1206,-91 779,398 353,888 353,1747 q 0,862 426,1349 427,488 1180,488 z"
       transform="scale(0.015625)" />
    <path
       id="DejaVuSans-75-9"
       d="m 544,1381 v 2119 h 575 V 1403 q 0,-497 193,-746 194,-248 582,-248 465,0 735,297 271,297 271,810 v 1984 h 575 V 0 H 2900 V 538 Q 2691,219 2414,64 2138,-91 1772,-91 1169,-91 856,284 544,659 544,1381 Z m 1447,2203 z"
       transform="scale(0.015625)" />
    <path
       id="DejaVuSans-73-0"
       d="m 2834,3397 v -544 q -243,125 -506,187 -262,63 -544,63 -428,0 -642,-131 -214,-131 -214,-394 0,-200 153,-314 153,-114 616,-217 l 197,-44 q 612,-131 870,-370 258,-239 258,-667 0,-488 -386,-773 Q 2250,-91 1575,-91 1294,-91 989,-36 684,19 347,128 v 594 q 319,-166 628,-249 309,-82 613,-82 406,0 624,139 219,139 219,392 0,234 -158,359 -157,125 -692,241 l -200,47 q -534,112 -772,345 -237,233 -237,639 0,494 350,762 350,269 994,269 318,0 599,-47 282,-46 519,-140 z"
       transform="scale(0.015625)" />
    <path
       id="DejaVuSans-5d-5"
       d="M 1947,4863 V -844 H 622 v 447 h 747 V 4416 H 622 v 447 z"
       transform="scale(0.015625)" />
    <path
       id="DejaVuSans-61-6"
       d="m 2194,1759 q -697,0 -966,-159 -269,-159 -269,-544 0,-306 202,-486 202,-179 548,-179 479,0 768,339 289,339 289,901 v 128 z m 1147,238 V 0 H 2766 V 531 Q 2569,213 2275,61 1981,-91 1556,-91 q -537,0 -855,302 -317,302 -317,808 0,590 395,890 396,300 1180,300 h 807 v 57 q 0,397 -261,614 -261,217 -733,217 -300,0 -585,-72 -284,-72 -546,-216 v 532 q 315,122 612,182 297,61 578,61 760,0 1135,-394 375,-393 375,-1193 z"
       transform="scale(0.015625)" />
    <path
       id="DejaVuSans-66-3"
       d="m 2375,4863 v -479 h -550 q -309,0 -430,-125 -120,-125 -120,-450 v -309 h 947 V 3053 H 1275 V 0 H 697 V 3053 H 147 v 447 h 550 v 244 q 0,584 272,851 272,268 862,268 z"
       transform="scale(0.015625)" />
    <path
       id="DejaVuSans-35-6"
       d="M 691,4666 H 3169 V 4134 H 1269 V 2991 q 137,47 274,70 138,23 276,23 781,0 1237,-428 457,-428 457,-1159 Q 3513,744 3044,326 2575,-91 1722,-91 1428,-91 1123,-41 819,9 494,109 v 635 q 281,-153 581,-228 300,-75 634,-75 541,0 856,284 316,284 316,772 0,487 -316,771 -315,285 -856,285 -253,0 -505,-56 -251,-56 -513,-175 z"
       transform="scale(0.015625)" />
    <path
       id="DejaVuSans-6e-3"
       d="M 3513,2113 V 0 h -575 v 2094 q 0,497 -194,743 -194,247 -581,247 -466,0 -735,-297 -269,-296 -269,-809 V 0 H 581 v 3500 h 578 v -544 q 207,316 486,472 280,156 646,156 603,0 912,-373 310,-373 310,-1098 z"
       transform="scale(0.015625)" />
    <clipPath
       id="p3849fe2c80">
      <rect
         x="28.942186"
         y="7.1999998"
         width="307.32187"
         height="307.32187"
         id="rect5843" />
    </clipPath>
    <clipPath
       id="clipPath5979">
      <rect
         x="28.942186"
         y="7.1999998"
         width="307.32187"
         height="307.32187"
         id="rect5977" />
    </clipPath>
    <path
       id="mc1e9384395"
       d="M -3,0 H 3 M 0,3 v -6"
       style="stroke:#000000;stroke-width:1.5" />
    <path
       id="m08bc9136ad"
       d="M 0,0 V 3.5"
       style="stroke:#000000;stroke-width:0.8" />
    <path
       id="DejaVuSans-2212-0"
       d="M 678,2272 H 4684 V 1741 H 678 Z"
       transform="scale(0.015625)" />
    <path
       id="DejaVuSans-33-9"
       d="m 2597,2516 q 453,-97 707,-404 255,-306 255,-756 0,-690 -475,-1069 -475,-378 -1350,-378 -293,0 -604,58 -311,58 -642,174 v 609 q 262,-153 574,-231 313,-78 654,-78 593,0 904,234 311,234 311,681 0,413 -289,645 -289,233 -804,233 h -544 v 519 h 569 q 465,0 712,186 247,186 247,536 0,359 -255,551 -254,193 -729,193 -260,0 -557,-57 -297,-56 -653,-174 v 562 q 360,100 674,150 314,50 592,50 719,0 1137,-327 419,-326 419,-882 0,-388 -222,-655 -222,-267 -631,-370 z"
       transform="scale(0.015625)" />
    <path
       id="DejaVuSans-32-2"
       d="M 1228,531 H 3431 V 0 H 469 v 531 q 359,372 979,998 621,627 780,809 303,340 423,576 121,236 121,464 0,372 -261,606 -261,235 -680,235 -297,0 -627,-103 -329,-103 -704,-313 v 638 q 381,153 712,231 332,78 607,78 725,0 1156,-363 431,-362 431,-968 0,-288 -108,-546 -107,-257 -392,-607 -78,-91 -497,-524 Q 1991,1309 1228,531 Z"
       transform="scale(0.015625)" />
    <path
       id="DejaVuSans-31-6"
       d="M 794,531 H 1825 V 4091 L 703,3866 v 575 l 1116,225 h 631 V 531 H 3481 V 0 H 794 Z"
       transform="scale(0.015625)" />
    <path
       id="DejaVuSans-30-4"
       d="m 2034,4250 q -487,0 -733,-480 -245,-479 -245,-1442 0,-959 245,-1439 246,-480 733,-480 491,0 736,480 246,480 246,1439 0,963 -246,1442 -245,480 -736,480 z m 0,500 q 785,0 1199,-621 414,-620 414,-1801 0,-1178 -414,-1799 -414,-620 -1199,-620 -784,0 -1198,620 -414,621 -414,1799 0,1181 414,1801 414,621 1198,621 z"
       transform="scale(0.015625)" />
    <path
       id="m43b307f5e3"
       d="M 0,0 H -3.5"
       style="stroke:#000000;stroke-width:0.8" />
    <clipPath
       id="p8816d8181b">
      <rect
         x="28.942186"
         y="7.1999998"
         width="307.32187"
         height="307.32187"
         id="rect7574" />
    </clipPath>
    <clipPath
       id="clipPath7710">
      <rect
         x="28.942186"
         y="7.1999998"
         width="307.32187"
         height="307.32187"
         id="rect7708" />
    </clipPath>
    <path
       id="m77b214bc52"
       d="M -3,0 H 3 M 0,3 v -6"
       style="stroke:#000000;stroke-width:1.5" />
    <path
       id="m4089df4254"
       d="M 0,0 V 3.5"
       style="stroke:#000000;stroke-width:0.8" />
    <path
       id="DejaVuSans-2212-88"
       d="M 678,2272 H 4684 V 1741 H 678 Z"
       transform="scale(0.015625)" />
    <path
       id="DejaVuSans-33-7"
       d="m 2597,2516 q 453,-97 707,-404 255,-306 255,-756 0,-690 -475,-1069 -475,-378 -1350,-378 -293,0 -604,58 -311,58 -642,174 v 609 q 262,-153 574,-231 313,-78 654,-78 593,0 904,234 311,234 311,681 0,413 -289,645 -289,233 -804,233 h -544 v 519 h 569 q 465,0 712,186 247,186 247,536 0,359 -255,551 -254,193 -729,193 -260,0 -557,-57 -297,-56 -653,-174 v 562 q 360,100 674,150 314,50 592,50 719,0 1137,-327 419,-326 419,-882 0,-388 -222,-655 -222,-267 -631,-370 z"
       transform="scale(0.015625)" />
    <path
       id="DejaVuSans-32-4"
       d="M 1228,531 H 3431 V 0 H 469 v 531 q 359,372 979,998 621,627 780,809 303,340 423,576 121,236 121,464 0,372 -261,606 -261,235 -680,235 -297,0 -627,-103 -329,-103 -704,-313 v 638 q 381,153 712,231 332,78 607,78 725,0 1156,-363 431,-362 431,-968 0,-288 -108,-546 -107,-257 -392,-607 -78,-91 -497,-524 Q 1991,1309 1228,531 Z"
       transform="scale(0.015625)" />
    <path
       id="DejaVuSans-31-9"
       d="M 794,531 H 1825 V 4091 L 703,3866 v 575 l 1116,225 h 631 V 531 H 3481 V 0 H 794 Z"
       transform="scale(0.015625)" />
    <path
       id="DejaVuSans-30-5"
       d="m 2034,4250 q -487,0 -733,-480 -245,-479 -245,-1442 0,-959 245,-1439 246,-480 733,-480 491,0 736,480 246,480 246,1439 0,963 -246,1442 -245,480 -736,480 z m 0,500 q 785,0 1199,-621 414,-620 414,-1801 0,-1178 -414,-1799 -414,-620 -1199,-620 -784,0 -1198,620 -414,621 -414,1799 0,1181 414,1801 414,621 1198,621 z"
       transform="scale(0.015625)" />
    <path
       id="mf38a8e83d3"
       d="M 0,0 H -3.5"
       style="stroke:#000000;stroke-width:0.8" />
    <clipPath
       id="p06448adcb3">
      <rect
         x="28.942186"
         y="7.1999998"
         width="307.32187"
         height="307.32187"
         id="rect11366" />
    </clipPath>
    <clipPath
       id="clipPath11502">
      <rect
         x="28.942186"
         y="7.1999998"
         width="307.32187"
         height="307.32187"
         id="rect11500" />
    </clipPath>
    <path
       id="m0a79830b01"
       d="M -3,0 H 3 M 0,3 v -6"
       style="stroke:#000000;stroke-width:1.5" />
    <path
       id="m8017060159"
       d="M 0,0 V 3.5"
       style="stroke:#000000;stroke-width:0.8" />
    <path
       id="DejaVuSans-2212"
       d="M 678,2272 H 4684 V 1741 H 678 Z"
       transform="scale(0.015625)" />
    <path
       id="DejaVuSans-33"
       d="m 2597,2516 q 453,-97 707,-404 255,-306 255,-756 0,-690 -475,-1069 -475,-378 -1350,-378 -293,0 -604,58 -311,58 -642,174 v 609 q 262,-153 574,-231 313,-78 654,-78 593,0 904,234 311,234 311,681 0,413 -289,645 -289,233 -804,233 h -544 v 519 h 569 q 465,0 712,186 247,186 247,536 0,359 -255,551 -254,193 -729,193 -260,0 -557,-57 -297,-56 -653,-174 v 562 q 360,100 674,150 314,50 592,50 719,0 1137,-327 419,-326 419,-882 0,-388 -222,-655 -222,-267 -631,-370 z"
       transform="scale(0.015625)" />
    <path
       id="DejaVuSans-32"
       d="M 1228,531 H 3431 V 0 H 469 v 531 q 359,372 979,998 621,627 780,809 303,340 423,576 121,236 121,464 0,372 -261,606 -261,235 -680,235 -297,0 -627,-103 -329,-103 -704,-313 v 638 q 381,153 712,231 332,78 607,78 725,0 1156,-363 431,-362 431,-968 0,-288 -108,-546 -107,-257 -392,-607 -78,-91 -497,-524 Q 1991,1309 1228,531 Z"
       transform="scale(0.015625)" />
    <path
       id="DejaVuSans-31"
       d="M 794,531 H 1825 V 4091 L 703,3866 v 575 l 1116,225 h 631 V 531 H 3481 V 0 H 794 Z"
       transform="scale(0.015625)" />
    <path
       id="DejaVuSans-30"
       d="m 2034,4250 q -487,0 -733,-480 -245,-479 -245,-1442 0,-959 245,-1439 246,-480 733,-480 491,0 736,480 246,480 246,1439 0,963 -246,1442 -245,480 -736,480 z m 0,500 q 785,0 1199,-621 414,-620 414,-1801 0,-1178 -414,-1799 -414,-620 -1199,-620 -784,0 -1198,620 -414,621 -414,1799 0,1181 414,1801 414,621 1198,621 z"
       transform="scale(0.015625)" />
    <path
       id="m009f3ec481"
       d="M 0,0 H -3.5"
       style="stroke:#000000;stroke-width:0.8" />
    <clipPath
       id="p1735f4c765">
      <rect
         x="28.942186"
         y="7.1999998"
         width="307.32187"
         height="307.32187"
         id="rect13235" />
    </clipPath>
    <clipPath
       id="clipPath13371">
      <rect
         x="28.942186"
         y="7.1999998"
         width="307.32187"
         height="307.32187"
         id="rect13369" />
    </clipPath>
    <path
       id="m13885ae548"
       d="M -3,0 H 3 M 0,3 v -6"
       style="stroke:#000000;stroke-width:1.5" />
    <path
       id="mf40c584399"
       d="M 0,0 V 3.5"
       style="stroke:#000000;stroke-width:0.8" />
    <path
       id="DejaVuSans-2212-4"
       d="M 678,2272 H 4684 V 1741 H 678 Z"
       transform="scale(0.015625)" />
    <path
       id="DejaVuSans-33-5"
       d="m 2597,2516 q 453,-97 707,-404 255,-306 255,-756 0,-690 -475,-1069 -475,-378 -1350,-378 -293,0 -604,58 -311,58 -642,174 v 609 q 262,-153 574,-231 313,-78 654,-78 593,0 904,234 311,234 311,681 0,413 -289,645 -289,233 -804,233 h -544 v 519 h 569 q 465,0 712,186 247,186 247,536 0,359 -255,551 -254,193 -729,193 -260,0 -557,-57 -297,-56 -653,-174 v 562 q 360,100 674,150 314,50 592,50 719,0 1137,-327 419,-326 419,-882 0,-388 -222,-655 -222,-267 -631,-370 z"
       transform="scale(0.015625)" />
    <path
       id="DejaVuSans-32-6"
       d="M 1228,531 H 3431 V 0 H 469 v 531 q 359,372 979,998 621,627 780,809 303,340 423,576 121,236 121,464 0,372 -261,606 -261,235 -680,235 -297,0 -627,-103 -329,-103 -704,-313 v 638 q 381,153 712,231 332,78 607,78 725,0 1156,-363 431,-362 431,-968 0,-288 -108,-546 -107,-257 -392,-607 -78,-91 -497,-524 Q 1991,1309 1228,531 Z"
       transform="scale(0.015625)" />
    <path
       id="DejaVuSans-31-5"
       d="M 794,531 H 1825 V 4091 L 703,3866 v 575 l 1116,225 h 631 V 531 H 3481 V 0 H 794 Z"
       transform="scale(0.015625)" />
    <path
       id="DejaVuSans-30-2"
       d="m 2034,4250 q -487,0 -733,-480 -245,-479 -245,-1442 0,-959 245,-1439 246,-480 733,-480 491,0 736,480 246,480 246,1439 0,963 -246,1442 -245,480 -736,480 z m 0,500 q 785,0 1199,-621 414,-620 414,-1801 0,-1178 -414,-1799 -414,-620 -1199,-620 -784,0 -1198,620 -414,621 -414,1799 0,1181 414,1801 414,621 1198,621 z"
       transform="scale(0.015625)" />
    <path
       id="mcc03df8568"
       d="M 0,0 H -3.5"
       style="stroke:#000000;stroke-width:0.8" />
    <clipPath
       clipPathUnits="userSpaceOnUse"
       id="clipPath2314">
      <rect
         x="28.942194"
         y="7.1999984"
         width="307.32187"
         height="307.32187"
         id="rect2316"
         style="stroke-width:0.999998" />
    </clipPath>
    <marker
       style="overflow:visible"
       id="Arrow1-8"
       refX="0"
       refY="0"
       orient="auto-start-reverse"
       inkscape:stockid="Arrow1"
       markerWidth="3.8535328"
       markerHeight="6.7071066"
       viewBox="0 0 3.8535327 6.7071068"
       inkscape:isstock="true"
       inkscape:collect="always"
       preserveAspectRatio="xMidYMid">
      <path
         style="fill:none;stroke:context-stroke;stroke-width:1;stroke-linecap:butt"
         d="M 3,-3 0,0 3,3"
         id="path5057-5"
         transform="rotate(180,0.125,0)"
         sodipodi:nodetypes="ccc" />
    </marker>
  </defs>
  <g
     id="figure_1">
    <g
       id="g3767"
       transform="translate(2.7173889,-32.126153)">
      <path
         style="fill:#f02000;fill-opacity:0.2;stroke-width:3.89761;stop-color:#000000"
         d="m 294.7892,210.72671 c 86.37224,15.26561 128.55345,6.16792 123.73841,-67.19859 C 414.86422,79.469555 367.1843,64.810233 317.32589,67.304315 264.23093,69.960282 188.27538,77.889902 138.56014,121.7517 c -56.781547,50.09613 -68.756049,141.65178 -9.93143,174.85141 77.20305,30.53124 96.3866,-96.84189 166.16049,-85.8764 z"
         id="path1358"
         sodipodi:nodetypes="ccsscc" />
      <g
         id="g3027"
         transform="matrix(0.23265316,-1.3385414,1.3385414,0.23265316,84.353433,381.37833)"
         style="stroke-width:2.338;stroke-dasharray:none">
        <use
           xlink:href="#mc1e9384395"
           x="135.56406"
           y="126.36562"
           style="stroke:#000000;stroke-width:1.5;stroke-linecap:butt;stroke-linejoin:round"
           id="use5645-572"
           transform="matrix(1.5,0,0,1.5,-63.309092,-149.12024)" />
        <use
           xlink:href="#mc1e9384395"
           x="135.56406"
           y="126.36562"
           style="stroke:#000000;stroke-width:1.5;stroke-linecap:butt;stroke-linejoin:round"
           id="use5645-479"
           transform="matrix(1.5,0,0,1.5,-11.632106,-178.56496)" />
        <use
           xlink:href="#mc1e9384395"
           x="135.56406"
           y="126.36562"
           style="stroke:#000000;stroke-width:1.5;stroke-linecap:butt;stroke-linejoin:round"
           id="use5645-55"
           transform="matrix(1.5,0,0,1.5,-33.869108,-193.27752)" />
        <use
           xlink:href="#mc1e9384395"
           x="135.56406"
           y="126.36562"
           style="stroke:#000000;stroke-width:1.5;stroke-linecap:butt;stroke-linejoin:round"
           id="use5645-61"
           transform="matrix(1.5,0,0,1.5,7.14683,-158.93496)" />
        <use
           xlink:href="#mc1e9384395"
           x="135.56406"
           y="126.36562"
           style="stroke:#000000;stroke-width:1.5;stroke-linecap:butt;stroke-linejoin:round"
           id="use5645-59"
           transform="matrix(1.5,0,0,1.5,-17.911974,-152.64134)" />
        <path
           id="use5645-13"
           d="m 159.85443,21.837432 h 19.83524 m -9.91762,9.91762 v -19.83524"
           style="fill:none;fill-opacity:0.132203;stroke:#2b50aa;stroke-width:4.95881;stroke-dasharray:none;stroke-opacity:1" />
        <use
           xlink:href="#mc1e9384395"
           x="135.56406"
           y="126.36562"
           style="stroke:#000000;stroke-width:1.5;stroke-linecap:butt;stroke-linejoin:round"
           id="use5645-889"
           transform="matrix(1.5,0,0,1.5,-57.637328,-199.14479)" />
        <use
           xlink:href="#mc1e9384395"
           x="135.56406"
           y="126.36562"
           style="stroke:#000000;stroke-width:1.5;stroke-linecap:butt;stroke-linejoin:round"
           id="use5645-43"
           transform="matrix(1.5,0,0,1.5,-58.261365,-174.57459)" />
        <use
           xlink:href="#mc1e9384395"
           x="135.56406"
           y="126.36562"
           style="stroke:#000000;stroke-width:1.5;stroke-linecap:butt;stroke-linejoin:round"
           id="use5645-95"
           transform="matrix(1.5,0,0,1.5,-42.140992,-149.63582)" />
        <use
           xlink:href="#mc1e9384395"
           x="135.56406"
           y="126.36562"
           style="stroke:#000000;stroke-width:1.5;stroke-linecap:butt;stroke-linejoin:round"
           id="use5645-17"
           transform="matrix(1.5,0,0,1.5,-25.494733,-129.72832)" />
        <use
           xlink:href="#mc1e9384395"
           x="135.56406"
           y="126.36562"
           style="stroke:#000000;stroke-width:1.5;stroke-linecap:butt;stroke-linejoin:round"
           id="use5645-45"
           transform="matrix(1.5,0,0,1.5,-46.485494,-126.87031)" />
        <use
           xlink:href="#mc1e9384395"
           x="135.56406"
           y="126.36562"
           style="stroke:#000000;stroke-width:1.5;stroke-linecap:butt;stroke-linejoin:round;stroke-dasharray:none"
           id="use5645-45-3"
           transform="matrix(1.5,0,0,1.5,-76.887272,-192.94779)" />
        <use
           xlink:href="#mc1e9384395"
           x="135.56406"
           y="126.36562"
           style="stroke:#000000;stroke-width:1.5;stroke-linecap:butt;stroke-linejoin:round"
           id="use5645-146"
           transform="matrix(1.5,0,0,1.5,-75.95953,-168.77315)" />
        <use
           xlink:href="#mc1e9384395"
           x="135.56406"
           y="126.36562"
           style="stroke:#000000;stroke-width:1.5;stroke-linecap:butt;stroke-linejoin:round"
           id="use5645-03"
           transform="matrix(1.5,0,0,1.5,-0.3498022,-138.16696)" />
      </g>
      <path
         style="fill:none;fill-opacity:0.501961;stroke:#2b50aa;stroke-width:4;stroke-dasharray:none;stroke-opacity:1;marker-start:url(#Arrow1);stop-color:#000000"
         d="m 134.90382,169.50361 c 0,0 -35.381001,12.63451 -60.404958,-3.30733 C 45.170443,147.51222 47.330037,91.884474 48.104816,82.0806"
         id="path3895"
         sodipodi:nodetypes="csc" />
      <path
         style="fill:none;fill-opacity:0.501961;stroke:#000000;stroke-width:4;stroke-linecap:butt;stroke-linejoin:round;stroke-dasharray:none;stroke-opacity:1;marker-start:url(#Arrow1-8);stop-color:#000000"
         d="m 208.78921,211.88419 c 0,0 8.70977,27.96709 25.13576,40.98923 15.50299,12.29041 36.89927,11.47146 56.1584,4.44888"
         id="path3895-3"
         sodipodi:nodetypes="csc" />
      <g
         aria-label="Prompt"
         id="text4376"
         style="font-size:24px;font-family:'Times New Roman';-inkscape-font-specification:'Times New Roman, ';text-align:center;text-anchor:middle;fill:#2b50aa;stroke-width:2.338;stop-color:#000000">
        <path
           d="m 24.111298,64.196175 v 4.628906 q 0,1.5 0.328125,1.863281 0.445312,0.515625 1.347656,0.515625 h 0.609375 v 0.433594 H 19.58786 v -0.433594 h 0.597656 q 1.007813,0 1.441407,-0.65625 0.234375,-0.363281 0.234375,-1.722656 V 58.559456 q 0,-1.5 -0.316407,-1.863281 Q 21.08786,56.18055 20.185516,56.18055 H 19.58786 v -0.433594 h 5.824219 q 2.132812,0 3.363281,0.445312 1.230469,0.433594 2.074219,1.476563 0.84375,1.042969 0.84375,2.472656 0,1.945313 -1.289063,3.164063 -1.277343,1.21875 -3.621093,1.21875 -0.574219,0 -1.242188,-0.08203 -0.667969,-0.08203 -1.429687,-0.246093 z m 0,-0.667969 q 0.621093,0.117187 1.101562,0.175781 0.480469,0.05859 0.820313,0.05859 1.21875,0 2.097656,-0.9375 0.890625,-0.949219 0.890625,-2.449219 0,-1.03125 -0.421875,-1.910156 -0.421875,-0.890625 -1.195313,-1.324219 -0.773437,-0.445312 -1.757812,-0.445312 -0.597656,0 -1.535156,0.222656 z"
           id="path6377" />
        <path
           d="m 36.427704,60.5868 v 2.414062 Q 37.77536,60.5868 39.193329,60.5868 q 0.644531,0 1.066406,0.398437 0.421875,0.386719 0.421875,0.902344 0,0.457031 -0.304687,0.773437 -0.304688,0.316407 -0.726563,0.316407 -0.410156,0 -0.925781,-0.398438 -0.503906,-0.410156 -0.75,-0.410156 -0.210938,0 -0.457031,0.234375 -0.527344,0.480469 -1.089844,1.582031 v 5.144531 q 0,0.890625 0.222656,1.347657 0.152344,0.316406 0.539063,0.527343 0.386718,0.210938 1.113281,0.210938 v 0.421875 H 32.80661 v -0.421875 q 0.820313,0 1.21875,-0.257813 0.292969,-0.1875 0.410156,-0.597656 0.05859,-0.199219 0.05859,-1.136719 v -4.160156 q 0,-1.875 -0.08203,-2.226562 -0.07031,-0.363282 -0.28125,-0.527344 -0.199219,-0.164063 -0.503906,-0.164063 -0.363282,0 -0.820313,0.175782 L 32.689423,61.8993 35.935516,60.5868 Z"
           id="path6379" />
        <path
           d="m 46.529266,60.5868 q 2.4375,0 3.914063,1.851562 1.253906,1.582031 1.253906,3.632813 0,1.441406 -0.691406,2.917968 -0.691406,1.476563 -1.910156,2.226563 -1.207032,0.75 -2.695313,0.75 -2.425781,0 -3.855469,-1.933594 -1.207031,-1.628906 -1.207031,-3.65625 0,-1.476562 0.726563,-2.929687 0.738281,-1.464844 1.933593,-2.15625 1.195313,-0.703125 2.53125,-0.703125 z m -0.363281,0.761718 q -0.621094,0 -1.253906,0.375 -0.621094,0.363282 -1.007813,1.289063 -0.386718,0.925781 -0.386718,2.378906 0,2.34375 0.925781,4.042969 0.9375,1.699219 2.460937,1.699219 1.136719,0 1.875,-0.9375 0.738282,-0.9375 0.738282,-3.222657 0,-2.859375 -1.230469,-4.5 -0.832031,-1.125 -2.121094,-1.125 z"
           id="path6381" />
        <path
           d="m 56.466766,62.871956 q 1.171875,-1.171875 1.382813,-1.347656 0.527344,-0.445313 1.136719,-0.691407 0.609375,-0.246093 1.207031,-0.246093 1.007812,0 1.734375,0.585937 0.726562,0.585938 0.972656,1.699219 1.207031,-1.40625 2.039063,-1.839844 0.832031,-0.445312 1.710937,-0.445312 0.855469,0 1.511719,0.445312 0.667969,0.433594 1.054687,1.429688 0.257813,0.679687 0.257813,2.132812 V 69.2118 q 0,1.007812 0.152344,1.382812 0.117187,0.257813 0.433593,0.445313 0.316407,0.175781 1.03125,0.175781 v 0.421875 h -5.296875 v -0.421875 h 0.222657 q 0.691406,0 1.078125,-0.269531 0.269531,-0.1875 0.386718,-0.597657 0.04687,-0.199218 0.04687,-1.136718 v -4.617188 q 0,-1.3125 -0.316406,-1.851562 -0.457031,-0.75 -1.464844,-0.75 -0.621093,0 -1.253906,0.316406 -0.621094,0.304687 -1.511719,1.148437 l -0.02344,0.128907 0.02344,0.503906 V 69.2118 q 0,1.101562 0.117188,1.371093 0.128906,0.269532 0.46875,0.457032 0.339844,0.175781 1.160156,0.175781 v 0.421875 h -5.425781 v -0.421875 q 0.890625,0 1.21875,-0.210938 0.339844,-0.210937 0.46875,-0.632812 0.05859,-0.199219 0.05859,-1.160156 v -4.617188 q 0,-1.3125 -0.386719,-1.886719 -0.515625,-0.75 -1.441406,-0.75 -0.632813,0 -1.253907,0.339844 -0.972656,0.515625 -1.5,1.160156 V 69.2118 q 0,1.054687 0.140625,1.371093 0.152344,0.316407 0.433594,0.480469 0.292969,0.152344 1.171875,0.152344 v 0.421875 h -5.308594 v -0.421875 q 0.738282,0 1.03125,-0.152344 0.292969,-0.164062 0.445313,-0.503906 0.152344,-0.351563 0.152344,-1.347656 v -4.101563 q 0,-1.769531 -0.105469,-2.285156 -0.08203,-0.386719 -0.257813,-0.527344 -0.175781,-0.152344 -0.480468,-0.152344 -0.328125,0 -0.785157,0.175782 L 52.728485,61.8993 55.96286,60.5868 h 0.503906 z"
           id="path6383" />
        <path
           d="m 71.173798,61.969612 3.304687,-1.335937 h 0.445313 v 2.507812 q 0.832031,-1.417969 1.664062,-1.980469 0.84375,-0.574218 1.769531,-0.574218 1.617188,0 2.695313,1.265625 1.324219,1.546875 1.324219,4.03125 0,2.777343 -1.59375,4.59375 -1.3125,1.488281 -3.304688,1.488281 -0.867187,0 -1.5,-0.246094 -0.46875,-0.175781 -1.054687,-0.703125 v 3.269531 q 0,1.101563 0.128906,1.394532 0.140625,0.304687 0.46875,0.480468 0.339844,0.175782 1.21875,0.175782 v 0.433593 h -5.625 V 76.3368 h 0.292969 q 0.644531,0.01172 1.101562,-0.246094 0.222656,-0.128906 0.339844,-0.421875 0.128906,-0.28125 0.128906,-1.453125 V 64.067268 q 0,-1.042968 -0.09375,-1.324218 -0.09375,-0.28125 -0.304687,-0.421875 -0.199219,-0.140625 -0.550782,-0.140625 -0.28125,0 -0.714843,0.164062 z m 3.75,1.863281 v 4.007813 q 0,1.300781 0.105468,1.710937 0.164063,0.679688 0.796875,1.195313 0.644532,0.515625 1.617188,0.515625 1.171875,0 1.898437,-0.914063 0.949219,-1.195312 0.949219,-3.363281 0,-2.460937 -1.078125,-3.785156 -0.75,-0.914063 -1.78125,-0.914063 -0.5625,0 -1.113281,0.28125 -0.421875,0.210938 -1.394531,1.265625 z"
           id="path6385" />
        <path
           d="m 87.064423,57.375862 v 3.527344 h 2.507812 v 0.820312 h -2.507812 v 6.960938 q 0,1.042969 0.292968,1.40625 0.304688,0.363281 0.773438,0.363281 0.386719,0 0.75,-0.234375 0.363281,-0.246094 0.5625,-0.714844 h 0.457031 q -0.410156,1.148438 -1.160156,1.734375 -0.75,0.574219 -1.546875,0.574219 -0.539063,0 -1.054688,-0.292969 -0.515625,-0.304687 -0.761718,-0.855468 -0.246094,-0.5625 -0.246094,-1.722657 v -7.21875 H 83.43161 V 61.3368 q 0.644531,-0.257813 1.3125,-0.867188 0.679688,-0.621094 1.207031,-1.464844 0.269532,-0.445312 0.75,-1.628906 z"
           id="path6387" />
      </g>
      <g
         aria-label="Selected Data"
         id="text4376-6"
         style="font-size:20px;font-family:'Times New Roman';-inkscape-font-specification:'Times New Roman, ';text-align:center;text-anchor:middle;stroke-width:2.338;stop-color:#000000"
         transform="translate(-1.5,-3)">
        <path
           d="m 311.6264,249.27042 v 4.58007 h -0.36132 q -0.17579,-1.31835 -0.63477,-2.0996 -0.44922,-0.78125 -1.28906,-1.24024 -0.83985,-0.45898 -1.73828,-0.45898 -1.01563,0 -1.67969,0.625 -0.66406,0.61523 -0.66406,1.40625 0,0.60547 0.41992,1.10351 0.60547,0.73242 2.88086,1.95313 1.85547,0.99609 2.52929,1.5332 0.6836,0.52734 1.04493,1.25 0.37109,0.72266 0.37109,1.51367 0,1.50391 -1.17187,2.59766 -1.16211,1.08398 -2.99805,1.08398 -0.57617,0 -1.08399,-0.0879 -0.30273,-0.0488 -1.25976,-0.35156 -0.94727,-0.3125 -1.20117,-0.3125 -0.24414,0 -0.39063,0.14648 -0.13672,0.14649 -0.20508,0.60547 h -0.36132 v -4.54101 h 0.36132 q 0.25391,1.42578 0.6836,2.13867 0.42968,0.70312 1.30859,1.17187 0.88867,0.46875 1.94336,0.46875 1.2207,0 1.92383,-0.64453 0.71289,-0.64453 0.71289,-1.52343 0,-0.48829 -0.27344,-0.98633 -0.26367,-0.49805 -0.83008,-0.92774 -0.38086,-0.29297 -2.08007,-1.24023 -1.69922,-0.95703 -2.42188,-1.52344 -0.71289,-0.56641 -1.08398,-1.25 -0.3711,-0.68359 -0.3711,-1.50391 0,-1.42578 1.09375,-2.45117 1.09375,-1.03515 2.78321,-1.03515 1.05468,0 2.23632,0.51757 0.54688,0.24415 0.77149,0.24415 0.2539,0 0.41015,-0.14649 0.16602,-0.15625 0.26368,-0.61523 z"
           id="path6415" />
        <path
           d="m 315.70844,257.23917 q -0.01,1.99218 0.96679,3.125 0.97656,1.13281 2.29492,1.13281 0.87891,0 1.52344,-0.47852 0.6543,-0.48828 1.09375,-1.66015 l 0.30274,0.19531 q -0.20508,1.33789 -1.19141,2.44141 -0.98633,1.09375 -2.4707,1.09375 -1.61133,0 -2.76368,-1.25 -1.14257,-1.25977 -1.14257,-3.37891 0,-2.29492 1.17187,-3.57422 1.18164,-1.28906 2.95899,-1.28906 1.5039,0 2.4707,0.99609 0.9668,0.98633 0.9668,2.64649 z m 0,-0.56641 h 4.14062 q -0.0488,-0.85937 -0.20508,-1.21094 -0.24414,-0.54687 -0.73242,-0.85937 -0.47852,-0.3125 -1.00586,-0.3125 -0.81055,0 -1.45508,0.63476 -0.63476,0.625 -0.74218,1.74805 z"
           id="path6417" />
        <path
           d="m 326.15765,248.92862 v 11.86523 q 0,0.83985 0.11719,1.11329 0.12695,0.27343 0.38086,0.41992 0.25391,0.13672 0.94727,0.13672 v 0.35156 h -4.38477 v -0.35156 q 0.61524,0 0.83984,-0.12696 0.22461,-0.12695 0.35157,-0.41992 0.12695,-0.29297 0.12695,-1.12305 v -8.125 q 0,-1.51367 -0.0684,-1.85546 -0.0684,-0.35157 -0.22461,-0.47852 -0.14648,-0.12695 -0.38086,-0.12695 -0.2539,0 -0.64453,0.15625 l -0.16601,-0.3418 2.66601,-1.09375 z"
           id="path6419" />
        <path
           d="m 330.14203,257.23917 q -0.01,1.99218 0.9668,3.125 0.97656,1.13281 2.29492,1.13281 0.8789,0 1.52344,-0.47852 0.65429,-0.48828 1.09375,-1.66015 l 0.30273,0.19531 q -0.20508,1.33789 -1.19141,2.44141 -0.98632,1.09375 -2.4707,1.09375 -1.61133,0 -2.76367,-1.25 -1.14258,-1.25977 -1.14258,-3.37891 0,-2.29492 1.17188,-3.57422 1.18164,-1.28906 2.95898,-1.28906 1.50391,0 2.4707,0.99609 0.9668,0.98633 0.9668,2.64649 z m 0,-0.56641 h 4.14062 q -0.0488,-0.85937 -0.20507,-1.21094 -0.24414,-0.54687 -0.73243,-0.85937 -0.47851,-0.3125 -1.00586,-0.3125 -0.81054,0 -1.45507,0.63476 -0.63477,0.625 -0.74219,1.74805 z"
           id="path6421" />
        <path
           d="m 345.11273,259.4169 q -0.36133,1.76758 -1.41601,2.72461 -1.05469,0.94727 -2.33399,0.94727 -1.52344,0 -2.65625,-1.2793 -1.13281,-1.2793 -1.13281,-3.45703 0,-2.10938 1.25,-3.42774 1.25977,-1.31836 3.01758,-1.31836 1.31836,0 2.16797,0.70313 0.84961,0.69336 0.84961,1.44531 0,0.3711 -0.24414,0.60547 -0.23438,0.22461 -0.66407,0.22461 -0.57617,0 -0.86914,-0.37109 -0.16601,-0.20508 -0.22461,-0.78125 -0.0488,-0.57618 -0.39062,-0.87891 -0.3418,-0.29297 -0.94727,-0.29297 -0.97656,0 -1.57226,0.72266 -0.79102,0.95703 -0.79102,2.52929 0,1.60157 0.78125,2.83204 0.79102,1.2207 2.12891,1.2207 0.95703,0 1.71875,-0.6543 0.53711,-0.44922 1.04492,-1.63086 z"
           id="path6423" />
        <path
           d="m 348.98969,250.93057 v 2.93946 h 2.08984 v 0.68359 h -2.08984 v 5.80078 q 0,0.86914 0.24414,1.17188 0.2539,0.30273 0.64453,0.30273 0.32226,0 0.625,-0.19531 0.30273,-0.20508 0.46875,-0.59571 h 0.38086 q -0.3418,0.95704 -0.9668,1.44532 -0.625,0.47851 -1.28906,0.47851 -0.44922,0 -0.87891,-0.24414 -0.42969,-0.2539 -0.63476,-0.71289 -0.20508,-0.46875 -0.20508,-1.43555 v -6.01562 h -1.41602 v -0.32227 q 0.53711,-0.21484 1.09375,-0.72265 0.56641,-0.51758 1.00586,-1.22071 0.22461,-0.37109 0.625,-1.35742 z"
           id="path6425" />
        <path
           d="m 353.45258,257.23917 q -0.01,1.99218 0.96679,3.125 0.97657,1.13281 2.29492,1.13281 0.87891,0 1.52344,-0.47852 0.6543,-0.48828 1.09375,-1.66015 l 0.30274,0.19531 q -0.20508,1.33789 -1.19141,2.44141 -0.98633,1.09375 -2.4707,1.09375 -1.61133,0 -2.76367,-1.25 -1.14258,-1.25977 -1.14258,-3.37891 0,-2.29492 1.17187,-3.57422 1.18164,-1.28906 2.95899,-1.28906 1.5039,0 2.4707,0.99609 0.9668,0.98633 0.9668,2.64649 z m 0,-0.56641 h 4.14062 q -0.0488,-0.85937 -0.20508,-1.21094 -0.24414,-0.54687 -0.73242,-0.85937 -0.47851,-0.3125 -1.00586,-0.3125 -0.81055,0 -1.45508,0.63476 -0.63476,0.625 -0.74218,1.74805 z"
           id="path6427" />
        <path
           d="m 367.14398,261.80948 q -0.65429,0.68359 -1.27929,0.98633 -0.625,0.29297 -1.34766,0.29297 -1.46484,0 -2.55859,-1.22071 -1.09375,-1.23047 -1.09375,-3.15429 0,-1.92383 1.21093,-3.51563 1.21094,-1.60156 3.11524,-1.60156 1.18164,0 1.95312,0.75195 v -1.65039 q 0,-1.5332 -0.0781,-1.88476 -0.0684,-0.35157 -0.22461,-0.47852 -0.15625,-0.12695 -0.39063,-0.12695 -0.2539,0 -0.67383,0.15625 l -0.12695,-0.3418 2.66602,-1.09375 h 0.43945 v 10.3418 q 0,1.57226 0.0684,1.92382 0.0781,0.3418 0.23437,0.47852 0.16602,0.13672 0.38086,0.13672 0.26368,0 0.70313,-0.16602 l 0.10742,0.3418 -2.65625,1.10352 h -0.44922 z m 0,-0.68359 v -4.60938 q -0.0586,-0.66406 -0.35156,-1.21094 -0.29297,-0.54687 -0.78125,-0.82031 -0.47852,-0.2832 -0.9375,-0.2832 -0.85938,0 -1.5332,0.77148 -0.88868,1.01563 -0.88868,2.96875 0,1.97266 0.85938,3.02735 0.85937,1.04492 1.91406,1.04492 0.88867,0 1.71875,-0.88867 z"
           id="path6429" />
        <path
           d="m 375.54242,262.81534 v -0.36133 h 0.49805 q 0.83984,0 1.1914,-0.53711 0.21485,-0.32226 0.21485,-1.44531 v -8.55469 q 0,-1.24023 -0.27344,-1.55273 -0.38086,-0.42969 -1.13281,-0.42969 h -0.49805 v -0.36133 h 5.39062 q 2.96875,0 4.51172,0.67383 1.55274,0.67383 2.49024,2.24609 0.94726,1.57227 0.94726,3.63282 0,2.76367 -1.67968,4.61914 -1.88477,2.07031 -5.74219,2.07031 z m 3.7793,-0.95703 q 1.24023,0.27343 2.08007,0.27343 2.26563,0 3.75977,-1.59179 1.49414,-1.5918 1.49414,-4.31641 0,-2.74414 -1.49414,-4.32617 -1.49414,-1.58203 -3.83789,-1.58203 -0.87891,0 -2.00195,0.2832 z"
           id="path6431" />
        <path
           d="m 395.33734,261.52628 q -1.37695,1.06445 -1.72851,1.23046 -0.52735,0.24415 -1.12305,0.24415 -0.92774,0 -1.5332,-0.63477 -0.59571,-0.63477 -0.59571,-1.66992 0,-0.6543 0.29297,-1.13281 0.40039,-0.66407 1.38672,-1.25 0.99609,-0.58594 3.30078,-1.42579 v -0.35156 q 0,-1.33789 -0.42969,-1.83594 -0.41992,-0.49804 -1.23046,-0.49804 -0.61524,0 -0.97657,0.33203 -0.37109,0.33203 -0.37109,0.76172 l 0.0195,0.5664 q 0,0.44922 -0.23437,0.69336 -0.22461,0.24414 -0.59571,0.24414 -0.36133,0 -0.5957,-0.2539 -0.22461,-0.25391 -0.22461,-0.69336 0,-0.83985 0.85937,-1.54297 0.85938,-0.70313 2.41211,-0.70313 1.19141,0 1.95313,0.40039 0.57617,0.30274 0.84961,0.94727 0.17578,0.41992 0.17578,1.71875 v 3.03711 q 0,1.2793 0.0488,1.57227 0.0488,0.2832 0.15625,0.38085 0.11719,0.0977 0.26367,0.0977 0.15625,0 0.27344,-0.0684 0.20508,-0.12695 0.79101,-0.71289 v 0.54688 q -1.09375,1.46484 -2.08984,1.46484 -0.47852,0 -0.76172,-0.33203 -0.2832,-0.33203 -0.29297,-1.13281 z m 0,-0.63477 v -3.4082 q -1.47461,0.58593 -1.9043,0.83008 -0.77148,0.42968 -1.10351,0.89843 -0.33203,0.46875 -0.33203,1.02539 0,0.70313 0.41992,1.17188 0.41992,0.45898 0.9668,0.45898 0.74218,0 1.95312,-0.97656 z"
           id="path6433" />
        <path
           d="m 401.74359,250.93057 v 2.93946 h 2.08985 v 0.68359 h -2.08985 v 5.80078 q 0,0.86914 0.24414,1.17188 0.25391,0.30273 0.64453,0.30273 0.32227,0 0.625,-0.19531 0.30274,-0.20508 0.46875,-0.59571 h 0.38086 q -0.34179,0.95704 -0.96679,1.44532 -0.625,0.47851 -1.28907,0.47851 -0.44922,0 -0.8789,-0.24414 -0.42969,-0.2539 -0.63477,-0.71289 -0.20508,-0.46875 -0.20508,-1.43555 v -6.01562 h -1.41601 v -0.32227 q 0.53711,-0.21484 1.09375,-0.72265 0.5664,-0.51758 1.00586,-1.22071 0.22461,-0.37109 0.625,-1.35742 z"
           id="path6435" />
        <path
           d="m 409.77094,261.52628 q -1.37696,1.06445 -1.72852,1.23046 -0.52734,0.24415 -1.12305,0.24415 -0.92773,0 -1.5332,-0.63477 -0.5957,-0.63477 -0.5957,-1.66992 0,-0.6543 0.29297,-1.13281 0.40039,-0.66407 1.38671,-1.25 0.9961,-0.58594 3.30079,-1.42579 v -0.35156 q 0,-1.33789 -0.42969,-1.83594 -0.41992,-0.49804 -1.23047,-0.49804 -0.61524,0 -0.97656,0.33203 -0.3711,0.33203 -0.3711,0.76172 l 0.0195,0.5664 q 0,0.44922 -0.23437,0.69336 -0.22461,0.24414 -0.5957,0.24414 -0.36133,0 -0.59571,-0.2539 -0.22461,-0.25391 -0.22461,-0.69336 0,-0.83985 0.85938,-1.54297 0.85937,-0.70313 2.41211,-0.70313 1.1914,0 1.95312,0.40039 0.57617,0.30274 0.84961,0.94727 0.17578,0.41992 0.17578,1.71875 v 3.03711 q 0,1.2793 0.0488,1.57227 0.0488,0.2832 0.15625,0.38085 0.11719,0.0977 0.26367,0.0977 0.15625,0 0.27344,-0.0684 0.20508,-0.12695 0.79102,-0.71289 v 0.54688 q -1.09375,1.46484 -2.08985,1.46484 -0.47851,0 -0.76172,-0.33203 -0.2832,-0.33203 -0.29296,-1.13281 z m 0,-0.63477 v -3.4082 q -1.47461,0.58593 -1.9043,0.83008 -0.77149,0.42968 -1.10352,0.89843 -0.33203,0.46875 -0.33203,1.02539 0,0.70313 0.41992,1.17188 0.41993,0.45898 0.9668,0.45898 0.74219,0 1.95313,-0.97656 z"
           id="path6437" />
      </g>
      <g
         aria-label="Data Manifold"
         id="text4376-6-3"
         style="font-size:20px;font-family:'Times New Roman';-inkscape-font-specification:'Times New Roman, ';text-align:center;text-anchor:middle;stroke-width:2.338;stop-color:#000000;fill:#f02000;fill-opacity:1"
         transform="matrix(1.1574675,0,0,1.1574675,-53.08627,-29.199471)">
        <path
           d="m 266.98856,191.00307 v -0.36133 h 0.49804 q 0.83985,0 1.19141,-0.53711 0.21484,-0.32227 0.21484,-1.44531 v -8.55469 q 0,-1.24023 -0.27343,-1.55273 -0.38086,-0.42969 -1.13282,-0.42969 h -0.49804 v -0.36133 h 5.39062 q 2.96875,0 4.51172,0.67383 1.55273,0.67383 2.49023,2.24609 0.94727,1.57227 0.94727,3.63281 0,2.76368 -1.67969,4.61914 -1.88476,2.07032 -5.74219,2.07032 z m 3.77929,-0.95703 q 1.24024,0.27343 2.08008,0.27343 2.26563,0 3.75977,-1.59179 1.49414,-1.5918 1.49414,-4.31641 0,-2.74414 -1.49414,-4.32617 -1.49414,-1.58203 -3.83789,-1.58203 -0.87891,0 -2.00196,0.2832 z"
           id="path6390"
           style="fill:#f02000;fill-opacity:1" />
        <path
           d="m 286.78348,189.714 q -1.37696,1.06446 -1.72852,1.23047 -0.52734,0.24414 -1.12304,0.24414 -0.92774,0 -1.53321,-0.63476 -0.5957,-0.63477 -0.5957,-1.66992 0,-0.6543 0.29297,-1.13282 0.40039,-0.66406 1.38672,-1.25 0.99609,-0.58593 3.30078,-1.42578 v -0.35156 q 0,-1.33789 -0.42969,-1.83594 -0.41992,-0.49804 -1.23047,-0.49804 -0.61523,0 -0.97656,0.33203 -0.37109,0.33203 -0.37109,0.76172 l 0.0195,0.5664 q 0,0.44922 -0.23438,0.69336 -0.22461,0.24414 -0.5957,0.24414 -0.36133,0 -0.5957,-0.2539 -0.22461,-0.25391 -0.22461,-0.69336 0,-0.83985 0.85937,-1.54297 0.85938,-0.70313 2.41211,-0.70313 1.19141,0 1.95313,0.40039 0.57617,0.30274 0.8496,0.94727 0.17579,0.41992 0.17579,1.71875 v 3.03711 q 0,1.2793 0.0488,1.57226 0.0488,0.28321 0.15625,0.38086 0.11719,0.0977 0.26368,0.0977 0.15625,0 0.27343,-0.0684 0.20508,-0.12695 0.79102,-0.71289 v 0.54687 q -1.09375,1.46485 -2.08984,1.46485 -0.47852,0 -0.76172,-0.33203 -0.28321,-0.33203 -0.29297,-1.13282 z m 0,-0.63476 v -3.4082 q -1.47461,0.58593 -1.9043,0.83007 -0.77148,0.42969 -1.10351,0.89844 -0.33204,0.46875 -0.33204,1.02539 0,0.70313 0.41993,1.17188 0.41992,0.45898 0.96679,0.45898 0.74219,0 1.95313,-0.97656 z"
           id="path6392"
           style="fill:#f02000;fill-opacity:1" />
        <path
           d="m 293.18973,179.1183 v 2.93945 h 2.08984 v 0.6836 h -2.08984 v 5.80078 q 0,0.86914 0.24414,1.17187 0.2539,0.30274 0.64453,0.30274 0.32227,0 0.625,-0.19531 0.30273,-0.20508 0.46875,-0.59571 h 0.38086 q -0.3418,0.95703 -0.9668,1.44532 -0.625,0.47851 -1.28906,0.47851 -0.44922,0 -0.87891,-0.24414 -0.42968,-0.25391 -0.63476,-0.71289 -0.20508,-0.46875 -0.20508,-1.43555 v -6.01562 h -1.41602 v -0.32227 q 0.53711,-0.21484 1.09375,-0.72265 0.56641,-0.51758 1.00586,-1.22071 0.22461,-0.37109 0.625,-1.35742 z"
           id="path6394"
           style="fill:#f02000;fill-opacity:1" />
        <path
           d="m 301.21707,189.714 q -1.37695,1.06446 -1.72851,1.23047 -0.52735,0.24414 -1.12305,0.24414 -0.92774,0 -1.5332,-0.63476 -0.59571,-0.63477 -0.59571,-1.66992 0,-0.6543 0.29297,-1.13282 0.40039,-0.66406 1.38672,-1.25 0.99609,-0.58593 3.30078,-1.42578 v -0.35156 q 0,-1.33789 -0.42969,-1.83594 -0.41992,-0.49804 -1.23046,-0.49804 -0.61524,0 -0.97657,0.33203 -0.37109,0.33203 -0.37109,0.76172 l 0.0195,0.5664 q 0,0.44922 -0.23437,0.69336 -0.22461,0.24414 -0.59571,0.24414 -0.36133,0 -0.5957,-0.2539 -0.22461,-0.25391 -0.22461,-0.69336 0,-0.83985 0.85937,-1.54297 0.85938,-0.70313 2.41211,-0.70313 1.19141,0 1.95313,0.40039 0.57617,0.30274 0.84961,0.94727 0.17578,0.41992 0.17578,1.71875 v 3.03711 q 0,1.2793 0.0488,1.57226 0.0488,0.28321 0.15625,0.38086 0.11719,0.0977 0.26367,0.0977 0.15625,0 0.27344,-0.0684 0.20508,-0.12695 0.79101,-0.71289 v 0.54687 q -1.09375,1.46485 -2.08984,1.46485 -0.47852,0 -0.76172,-0.33203 -0.2832,-0.33203 -0.29297,-1.13282 z m 0,-0.63476 v -3.4082 q -1.47461,0.58593 -1.9043,0.83007 -0.77148,0.42969 -1.10351,0.89844 -0.33203,0.46875 -0.33203,1.02539 0,0.70313 0.41992,1.17188 0.41992,0.45898 0.9668,0.45898 0.74218,0 1.95312,-0.97656 z"
           id="path6396"
           style="fill:#f02000;fill-opacity:1" />
        <path
           d="m 317.58426,191.00307 -5.11719,-11.14258 v 8.84766 q 0,1.2207 0.26367,1.52343 0.36133,0.41016 1.14258,0.41016 h 0.46875 v 0.36133 h -4.60937 v -0.36133 h 0.46875 q 0.83984,0 1.1914,-0.50781 0.21485,-0.3125 0.21485,-1.42578 v -8.65235 q 0,-0.8789 -0.19532,-1.26953 -0.13671,-0.2832 -0.50781,-0.46875 -0.36133,-0.19531 -1.17187,-0.19531 v -0.36133 h 3.75 l 4.80468,10.36133 4.72657,-10.36133 h 3.75 v 0.36133 h -0.45899 q -0.84961,0 -1.20117,0.50781 -0.21484,0.3125 -0.21484,1.42578 v 8.65235 q 0,1.2207 0.27343,1.52343 0.36133,0.41016 1.14258,0.41016 h 0.45899 v 0.36133 h -5.625 v -0.36133 h 0.46875 q 0.84961,0 1.1914,-0.50781 0.21485,-0.3125 0.21485,-1.42578 v -8.84766 l -5.10743,11.14258 z"
           id="path6398"
           style="fill:#f02000;fill-opacity:1" />
        <path
           d="m 332.87723,189.714 q -1.37696,1.06446 -1.72852,1.23047 -0.52734,0.24414 -1.12304,0.24414 -0.92774,0 -1.53321,-0.63476 -0.5957,-0.63477 -0.5957,-1.66992 0,-0.6543 0.29297,-1.13282 0.40039,-0.66406 1.38672,-1.25 0.99609,-0.58593 3.30078,-1.42578 v -0.35156 q 0,-1.33789 -0.42969,-1.83594 -0.41992,-0.49804 -1.23047,-0.49804 -0.61523,0 -0.97656,0.33203 -0.37109,0.33203 -0.37109,0.76172 l 0.0195,0.5664 q 0,0.44922 -0.23438,0.69336 -0.22461,0.24414 -0.5957,0.24414 -0.36133,0 -0.5957,-0.2539 -0.22461,-0.25391 -0.22461,-0.69336 0,-0.83985 0.85937,-1.54297 0.85938,-0.70313 2.41211,-0.70313 1.19141,0 1.95313,0.40039 0.57617,0.30274 0.8496,0.94727 0.17579,0.41992 0.17579,1.71875 v 3.03711 q 0,1.2793 0.0488,1.57226 0.0488,0.28321 0.15625,0.38086 0.11719,0.0977 0.26368,0.0977 0.15625,0 0.27343,-0.0684 0.20508,-0.12695 0.79102,-0.71289 v 0.54687 q -1.09375,1.46485 -2.08984,1.46485 -0.47852,0 -0.76172,-0.33203 -0.28321,-0.33203 -0.29297,-1.13282 z m 0,-0.63476 v -3.4082 q -1.47461,0.58593 -1.9043,0.83007 -0.77148,0.42969 -1.10351,0.89844 -0.33204,0.46875 -0.33204,1.02539 0,0.70313 0.41993,1.17188 0.41992,0.45898 0.96679,0.45898 0.74219,0 1.95313,-0.97656 z"
           id="path6400"
           style="fill:#f02000;fill-opacity:1" />
        <path
           d="m 339.29324,183.68861 q 1.57227,-1.89453 2.99805,-1.89453 0.73242,0 1.25977,0.3711 0.52734,0.36132 0.83984,1.20117 0.21484,0.58594 0.21484,1.79687 v 3.81836 q 0,0.84961 0.13672,1.15235 0.10742,0.24414 0.3418,0.38086 0.24414,0.13671 0.88867,0.13671 v 0.35157 h -4.42383 v -0.35157 h 0.18555 q 0.625,0 0.86914,-0.18554 0.25391,-0.19531 0.35156,-0.56641 0.0391,-0.14648 0.0391,-0.91797 v -3.66211 q 0,-1.2207 -0.32227,-1.76757 -0.3125,-0.55665 -1.06445,-0.55665 -1.16211,0 -2.31446,1.26954 v 4.71679 q 0,0.90821 0.10743,1.12305 0.13671,0.2832 0.37109,0.41992 0.24414,0.12695 0.97656,0.12695 v 0.35157 h -4.42383 v -0.35157 h 0.19532 q 0.68359,0 0.91796,-0.34179 0.24415,-0.35156 0.24415,-1.32813 v -3.32031 q 0,-1.61133 -0.0781,-1.96289 -0.0684,-0.35156 -0.22461,-0.47852 -0.14648,-0.12695 -0.40039,-0.12695 -0.27344,0 -0.6543,0.14649 l -0.14648,-0.35157 2.69531,-1.09375 h 0.41992 z"
           id="path6402"
           style="fill:#f02000;fill-opacity:1" />
        <path
           d="m 348.96121,177.11635 q 0.41016,0 0.69336,0.29297 0.29297,0.2832 0.29297,0.69336 0,0.41015 -0.29297,0.70312 -0.2832,0.29297 -0.69336,0.29297 -0.41015,0 -0.70312,-0.29297 -0.29297,-0.29297 -0.29297,-0.70312 0,-0.41016 0.2832,-0.69336 0.29297,-0.29297 0.71289,-0.29297 z m 0.81055,4.67773 v 7.1875 q 0,0.83985 0.11719,1.12305 0.12695,0.27344 0.36132,0.41016 0.24415,0.13671 0.87891,0.13671 v 0.35157 h -4.3457 v -0.35157 q 0.65429,0 0.8789,-0.12695 0.22461,-0.12695 0.35157,-0.41992 0.13672,-0.29297 0.13672,-1.12305 v -3.44726 q 0,-1.45508 -0.0879,-1.88477 -0.0684,-0.3125 -0.21484,-0.42969 -0.14648,-0.12695 -0.40039,-0.12695 -0.27344,0 -0.66406,0.14649 l -0.13672,-0.35157 2.69531,-1.09375 z"
           id="path6404"
           style="fill:#f02000;fill-opacity:1" />
        <path
           d="m 355.73856,182.76088 v 5.87891 q 0,1.25 0.27343,1.58203 0.36133,0.42968 0.9668,0.42968 h 0.81055 v 0.35157 h -5.3418 v -0.35157 h 0.40039 q 0.39063,0 0.71289,-0.19531 0.32227,-0.19531 0.43945,-0.52734 0.12696,-0.33203 0.12696,-1.28906 v -5.87891 h -1.73828 v -0.70313 h 1.73828 v -0.58593 q 0,-1.33789 0.42969,-2.26563 0.42968,-0.92773 1.30859,-1.49414 0.88867,-0.57617 1.99219,-0.57617 1.02539,0 1.88476,0.66406 0.56641,0.43946 0.56641,0.98633 0,0.29297 -0.25391,0.55664 -0.2539,0.25391 -0.54687,0.25391 -0.22461,0 -0.47852,-0.15625 -0.24414,-0.16602 -0.60547,-0.69336 -0.36133,-0.53711 -0.66406,-0.72266 -0.30273,-0.18555 -0.67383,-0.18555 -0.44922,0 -0.76172,0.24415 -0.3125,0.23437 -0.44922,0.74218 -0.13671,0.49805 -0.13671,2.58789 v 0.64453 h 2.30468 v 0.70313 z"
           id="path6406"
           style="fill:#f02000;fill-opacity:1" />
        <path
           d="m 363.27762,181.79408 q 2.03125,0 3.26172,1.54297 1.04492,1.31836 1.04492,3.02735 0,1.20117 -0.57617,2.43164 -0.57617,1.23046 -1.5918,1.85546 -1.00586,0.625 -2.24609,0.625 -2.02149,0 -3.21289,-1.61132 -1.00586,-1.35743 -1.00586,-3.04688 0,-1.23047 0.60547,-2.4414 0.61523,-1.22071 1.61132,-1.79688 0.9961,-0.58594 2.10938,-0.58594 z m -0.30274,0.63477 q -0.51757,0 -1.04492,0.3125 -0.51758,0.30273 -0.83984,1.07422 -0.32227,0.77148 -0.32227,1.98242 0,1.95312 0.77149,3.36914 0.78125,1.41602 2.05078,1.41602 0.94726,0 1.5625,-0.78125 0.61523,-0.78125 0.61523,-2.68555 0,-2.38281 -1.02539,-3.75 -0.69336,-0.9375 -1.76758,-0.9375 z"
           id="path6408"
           style="fill:#f02000;fill-opacity:1" />
        <path
           d="m 371.97879,177.11635 v 11.86523 q 0,0.83985 0.11719,1.11328 0.12695,0.27344 0.38086,0.41993 0.2539,0.13671 0.94726,0.13671 v 0.35157 h -4.38476 v -0.35157 q 0.61523,0 0.83984,-0.12695 0.22461,-0.12695 0.35156,-0.41992 0.12696,-0.29297 0.12696,-1.12305 v -8.125 q 0,-1.51367 -0.0684,-1.85547 -0.0684,-0.35156 -0.22461,-0.47851 -0.14649,-0.12695 -0.38086,-0.12695 -0.25391,0 -0.64453,0.15625 l -0.16602,-0.3418 2.66602,-1.09375 z"
           id="path6410"
           style="fill:#f02000;fill-opacity:1" />
        <path
           d="m 380.77762,189.99721 q -0.6543,0.68359 -1.2793,0.98633 -0.625,0.29296 -1.34765,0.29296 -1.46485,0 -2.5586,-1.2207 -1.09375,-1.23047 -1.09375,-3.1543 0,-1.92382 1.21094,-3.51562 1.21094,-1.60156 3.11523,-1.60156 1.18164,0 1.95313,0.75195 v -1.65039 q 0,-1.5332 -0.0781,-1.88477 -0.0684,-0.35156 -0.22461,-0.47851 -0.15625,-0.12695 -0.39062,-0.12695 -0.25391,0 -0.67383,0.15625 l -0.12695,-0.3418 2.66601,-1.09375 h 0.43946 v 10.3418 q 0,1.57226 0.0684,1.92382 0.0781,0.3418 0.23437,0.47852 0.16602,0.13672 0.38086,0.13672 0.26367,0 0.70313,-0.16602 l 0.10742,0.3418 -2.65625,1.10351 h -0.44922 z m 0,-0.6836 v -4.60937 q -0.0586,-0.66406 -0.35156,-1.21094 -0.29297,-0.54687 -0.78125,-0.82031 -0.47852,-0.2832 -0.9375,-0.2832 -0.85938,0 -1.53321,0.77148 -0.88867,1.01563 -0.88867,2.96875 0,1.97266 0.85938,3.02734 0.85937,1.04493 1.91406,1.04493 0.88867,0 1.71875,-0.88868 z"
           id="path6412"
           style="fill:#f02000;fill-opacity:1" />
      </g>
      <g
         aria-label="Full Data Space"
         id="text4376-6-3-7"
         style="font-size:20px;font-family:'Times New Roman';-inkscape-font-specification:'Times New Roman, ';text-align:center;text-anchor:middle;stroke-width:2.338;stop-color:#000000"
         transform="matrix(1.1525921,0,0,1.1525921,-65.388454,-48.407868)">
        <path
           d="m 305.4321,300.44025 v 5.20507 h 2.41211 q 0.83008,0 1.21094,-0.36132 0.39062,-0.3711 0.51757,-1.45508 h 0.36133 v 4.48242 h -0.36133 q -0.01,-0.77148 -0.20507,-1.13281 -0.18555,-0.36133 -0.52735,-0.53711 -0.33203,-0.18555 -0.99609,-0.18555 h -2.41211 v 4.16016 q 0,1.00586 0.12695,1.32812 0.0977,0.24414 0.41016,0.41992 0.42969,0.23438 0.89844,0.23438 h 0.47851 v 0.36133 h -5.68359 v -0.36133 h 0.46875 q 0.82031,0 1.1914,-0.47852 0.23438,-0.3125 0.23438,-1.5039 v -8.55469 q 0,-1.00586 -0.12695,-1.32812 -0.0977,-0.24415 -0.4004,-0.41993 -0.41992,-0.23437 -0.89843,-0.23437 h -0.46875 v -0.36133 h 9.85351 l 0.12696,2.91016 h -0.3418 q -0.25391,-0.92774 -0.5957,-1.35743 -0.33204,-0.43945 -0.83008,-0.63476 -0.48828,-0.19531 -1.52344,-0.19531 z"
           id="path6440" />
        <path
           d="m 320.93015,304.01447 v 5.41992 q 0,1.55273 0.0683,1.90429 0.0781,0.3418 0.23438,0.47852 0.16602,0.13672 0.38086,0.13672 0.30273,0 0.68359,-0.16602 l 0.13672,0.3418 -2.67578,1.10352 h -0.43945 v -1.89454 q -1.15235,1.25 -1.75782,1.57227 -0.60546,0.32227 -1.27929,0.32227 -0.75196,0 -1.3086,-0.42969 -0.54687,-0.43946 -0.76171,-1.12305 -0.21485,-0.68359 -0.21485,-1.93359 v -3.99414 q 0,-0.63477 -0.13672,-0.87891 -0.13672,-0.24414 -0.41015,-0.37109 -0.26368,-0.13672 -0.9668,-0.12696 v -0.36132 h 3.13477 v 5.98632 q 0,1.25 0.42968,1.64063 0.43946,0.39062 1.05469,0.39062 0.41992,0 0.94727,-0.26367 0.53711,-0.26367 1.26953,-1.00586 v -5.06836 q 0,-0.76172 -0.28321,-1.02539 -0.27343,-0.27344 -1.15234,-0.29297 v -0.36132 z"
           id="path6442" />
        <path
           d="m 326.16452,299.07306 v 11.86523 q 0,0.83985 0.11719,1.11328 0.12695,0.27344 0.38086,0.41993 0.2539,0.13672 0.94726,0.13672 v 0.35156 h -4.38476 v -0.35156 q 0.61523,0 0.83984,-0.12696 0.22461,-0.12695 0.35156,-0.41992 0.12696,-0.29297 0.12696,-1.12305 v -8.125 q 0,-1.51367 -0.0684,-1.85547 -0.0684,-0.35156 -0.22461,-0.47851 -0.14649,-0.12695 -0.38086,-0.12695 -0.25391,0 -0.64453,0.15625 l -0.16602,-0.3418 2.66602,-1.09375 z"
           id="path6444" />
        <path
           d="m 331.72116,299.07306 v 11.86523 q 0,0.83985 0.11719,1.11328 0.12695,0.27344 0.38086,0.41993 0.2539,0.13672 0.94726,0.13672 v 0.35156 h -4.38476 v -0.35156 q 0.61523,0 0.83984,-0.12696 0.22461,-0.12695 0.35156,-0.41992 0.12696,-0.29297 0.12696,-1.12305 v -8.125 q 0,-1.51367 -0.0684,-1.85547 -0.0684,-0.35156 -0.22461,-0.47851 -0.14649,-0.12695 -0.38086,-0.12695 -0.25391,0 -0.64453,0.15625 l -0.16602,-0.3418 2.66602,-1.09375 z"
           id="path6446" />
        <path
           d="m 338.91843,312.95978 v -0.36133 h 0.49804 q 0.83985,0 1.19141,-0.53711 0.21484,-0.32227 0.21484,-1.44531 v -8.55469 q 0,-1.24023 -0.27343,-1.55273 -0.38086,-0.42969 -1.13282,-0.42969 h -0.49804 v -0.36133 h 5.39062 q 2.96875,0 4.51172,0.67383 1.55273,0.67383 2.49023,2.24609 0.94727,1.57227 0.94727,3.63281 0,2.76368 -1.67969,4.61915 -1.88476,2.07031 -5.74218,2.07031 z m 3.77929,-0.95703 q 1.24024,0.27343 2.08008,0.27343 2.26563,0 3.75977,-1.59179 1.49414,-1.5918 1.49414,-4.31641 0,-2.74414 -1.49414,-4.32617 -1.49414,-1.58203 -3.83789,-1.58203 -0.87891,0 -2.00196,0.2832 z"
           id="path6448" />
        <path
           d="m 358.71335,311.67072 q -1.37695,1.06445 -1.72852,1.23046 -0.52734,0.24414 -1.12304,0.24414 -0.92774,0 -1.53321,-0.63476 -0.5957,-0.63477 -0.5957,-1.66992 0,-0.6543 0.29297,-1.13282 0.40039,-0.66406 1.38672,-1.25 0.99609,-0.58593 3.30078,-1.42578 v -0.35156 q 0,-1.33789 -0.42969,-1.83594 -0.41992,-0.49804 -1.23047,-0.49804 -0.61523,0 -0.97656,0.33203 -0.37109,0.33203 -0.37109,0.76172 l 0.0195,0.5664 q 0,0.44922 -0.23438,0.69336 -0.22461,0.24414 -0.5957,0.24414 -0.36133,0 -0.5957,-0.2539 -0.22461,-0.25391 -0.22461,-0.69336 0,-0.83985 0.85937,-1.54297 0.85938,-0.70313 2.41211,-0.70313 1.19141,0 1.95313,0.40039 0.57617,0.30274 0.84961,0.94727 0.17578,0.41992 0.17578,1.71875 v 3.03711 q 0,1.2793 0.0488,1.57226 0.0488,0.28321 0.15625,0.38086 0.11719,0.0977 0.26368,0.0977 0.15625,0 0.27343,-0.0684 0.20508,-0.12695 0.79102,-0.71289 v 0.54688 q -1.09375,1.46484 -2.08984,1.46484 -0.47852,0 -0.76172,-0.33203 -0.28321,-0.33203 -0.29297,-1.13281 z m 0,-0.63477 v -3.4082 q -1.47461,0.58593 -1.9043,0.83007 -0.77148,0.42969 -1.10351,0.89844 -0.33204,0.46875 -0.33204,1.02539 0,0.70313 0.41993,1.17188 0.41992,0.45898 0.96679,0.45898 0.74219,0 1.95313,-0.97656 z"
           id="path6450" />
        <path
           d="m 365.1196,301.07501 v 2.93946 h 2.08984 v 0.68359 h -2.08984 v 5.80078 q 0,0.86914 0.24414,1.17188 0.25391,0.30273 0.64453,0.30273 0.32227,0 0.625,-0.19531 0.30273,-0.20508 0.46875,-0.59571 h 0.38086 q -0.3418,0.95704 -0.9668,1.44532 -0.625,0.47851 -1.28906,0.47851 -0.44922,0 -0.87891,-0.24414 -0.42968,-0.2539 -0.63476,-0.71289 -0.20508,-0.46875 -0.20508,-1.43555 v -6.01562 h -1.41602 v -0.32227 q 0.53711,-0.21484 1.09375,-0.72265 0.56641,-0.51758 1.00586,-1.22071 0.22461,-0.37109 0.625,-1.35742 z"
           id="path6452" />
        <path
           d="m 373.14694,311.67072 q -1.37695,1.06445 -1.72851,1.23046 -0.52735,0.24414 -1.12305,0.24414 -0.92773,0 -1.5332,-0.63476 -0.59571,-0.63477 -0.59571,-1.66992 0,-0.6543 0.29297,-1.13282 0.40039,-0.66406 1.38672,-1.25 0.99609,-0.58593 3.30078,-1.42578 v -0.35156 q 0,-1.33789 -0.42969,-1.83594 -0.41992,-0.49804 -1.23046,-0.49804 -0.61524,0 -0.97657,0.33203 -0.37109,0.33203 -0.37109,0.76172 l 0.0195,0.5664 q 0,0.44922 -0.23437,0.69336 -0.22461,0.24414 -0.59571,0.24414 -0.36133,0 -0.5957,-0.2539 -0.22461,-0.25391 -0.22461,-0.69336 0,-0.83985 0.85938,-1.54297 0.85937,-0.70313 2.4121,-0.70313 1.19141,0 1.95313,0.40039 0.57617,0.30274 0.84961,0.94727 0.17578,0.41992 0.17578,1.71875 v 3.03711 q 0,1.2793 0.0488,1.57226 0.0488,0.28321 0.15625,0.38086 0.11719,0.0977 0.26367,0.0977 0.15625,0 0.27344,-0.0684 0.20508,-0.12695 0.79101,-0.71289 v 0.54688 q -1.09375,1.46484 -2.08984,1.46484 -0.47852,0 -0.76172,-0.33203 -0.2832,-0.33203 -0.29297,-1.13281 z m 0,-0.63477 v -3.4082 q -1.47461,0.58593 -1.90429,0.83007 -0.77149,0.42969 -1.10352,0.89844 -0.33203,0.46875 -0.33203,1.02539 0,0.70313 0.41992,1.17188 0.41992,0.45898 0.9668,0.45898 0.74218,0 1.95312,-0.97656 z"
           id="path6454" />
        <path
           d="m 390.50046,299.41486 v 4.58007 h -0.36133 q -0.17578,-1.31836 -0.63477,-2.09961 -0.44921,-0.78125 -1.28906,-1.24023 -0.83984,-0.45898 -1.73828,-0.45898 -1.01562,0 -1.67969,0.625 -0.66406,0.61523 -0.66406,1.40625 0,0.60546 0.41992,1.10351 0.60547,0.73242 2.88086,1.95313 1.85547,0.99609 2.5293,1.5332 0.68359,0.52734 1.04492,1.25 0.37109,0.72266 0.37109,1.51367 0,1.50391 -1.17187,2.59766 -1.16211,1.08398 -2.99805,1.08398 -0.57617,0 -1.08398,-0.0879 -0.30274,-0.0488 -1.25977,-0.35156 -0.94726,-0.3125 -1.20117,-0.3125 -0.24414,0 -0.39062,0.14648 -0.13672,0.14649 -0.20508,0.60547 h -0.36133 v -4.54101 h 0.36133 q 0.2539,1.42578 0.68359,2.13867 0.42969,0.70312 1.30859,1.17187 0.88868,0.46875 1.94336,0.46875 1.22071,0 1.92383,-0.64453 0.71289,-0.64453 0.71289,-1.52344 0,-0.48828 -0.27343,-0.98632 -0.26368,-0.49805 -0.83008,-0.92774 -0.38086,-0.29297 -2.08008,-1.24023 -1.69922,-0.95703 -2.42188,-1.52344 -0.71289,-0.56641 -1.08398,-1.25 -0.37109,-0.68359 -0.37109,-1.50391 0,-1.42578 1.09375,-2.45117 1.09375,-1.03515 2.7832,-1.03515 1.05469,0 2.23633,0.51757 0.54687,0.24414 0.77148,0.24414 0.25391,0 0.41016,-0.14648 0.16601,-0.15625 0.26367,-0.61523 z"
           id="path6456" />
        <path
           d="m 392.43405,304.90314 2.75391,-1.11328 h 0.37109 v 2.08984 q 0.69336,-1.18164 1.38672,-1.65039 0.70313,-0.47852 1.47461,-0.47852 1.34766,0 2.24609,1.05469 1.10352,1.28906 1.10352,3.35938 0,2.31445 -1.32813,3.82812 -1.09375,1.24024 -2.7539,1.24024 -0.72266,0 -1.25,-0.20508 -0.39063,-0.14649 -0.87891,-0.58594 v 2.72461 q 0,0.91797 0.10742,1.16211 0.11719,0.2539 0.39063,0.40039 0.2832,0.14648 1.01562,0.14648 v 0.36133 h -4.6875 v -0.36133 h 0.24414 q 0.53711,0.01 0.91797,-0.20507 0.18555,-0.10743 0.28321,-0.35157 0.10742,-0.23437 0.10742,-1.21093 v -8.45704 q 0,-0.86914 -0.0781,-1.10351 -0.0781,-0.23438 -0.2539,-0.35156 -0.16602,-0.11719 -0.45899,-0.11719 -0.23437,0 -0.5957,0.13672 z m 3.125,1.55273 v 3.33985 q 0,1.08398 0.0879,1.42578 0.13672,0.5664 0.66406,0.99609 0.53711,0.42969 1.34766,0.42969 0.97656,0 1.58203,-0.76172 0.79102,-0.99609 0.79102,-2.80274 0,-2.05078 -0.89844,-3.15429 -0.625,-0.76172 -1.48437,-0.76172 -0.46875,0 -0.92774,0.23437 -0.35156,0.17579 -1.16211,1.05469 z"
           id="path6458" />
        <path
           d="m 408.14694,311.67072 q -1.37695,1.06445 -1.72851,1.23046 -0.52735,0.24414 -1.12305,0.24414 -0.92773,0 -1.5332,-0.63476 -0.59571,-0.63477 -0.59571,-1.66992 0,-0.6543 0.29297,-1.13282 0.40039,-0.66406 1.38672,-1.25 0.99609,-0.58593 3.30078,-1.42578 v -0.35156 q 0,-1.33789 -0.42969,-1.83594 -0.41992,-0.49804 -1.23046,-0.49804 -0.61524,0 -0.97657,0.33203 -0.37109,0.33203 -0.37109,0.76172 l 0.0195,0.5664 q 0,0.44922 -0.23437,0.69336 -0.22461,0.24414 -0.59571,0.24414 -0.36133,0 -0.5957,-0.2539 -0.22461,-0.25391 -0.22461,-0.69336 0,-0.83985 0.85938,-1.54297 0.85937,-0.70313 2.4121,-0.70313 1.19141,0 1.95313,0.40039 0.57617,0.30274 0.84961,0.94727 0.17578,0.41992 0.17578,1.71875 v 3.03711 q 0,1.2793 0.0488,1.57226 0.0488,0.28321 0.15625,0.38086 0.11719,0.0977 0.26367,0.0977 0.15625,0 0.27344,-0.0684 0.20508,-0.12695 0.79101,-0.71289 v 0.54688 q -1.09375,1.46484 -2.08984,1.46484 -0.47852,0 -0.76172,-0.33203 -0.2832,-0.33203 -0.29297,-1.13281 z m 0,-0.63477 v -3.4082 q -1.47461,0.58593 -1.90429,0.83007 -0.77149,0.42969 -1.10352,0.89844 -0.33203,0.46875 -0.33203,1.02539 0,0.70313 0.41992,1.17188 0.41992,0.45898 0.9668,0.45898 0.74218,0 1.95312,-0.97656 z"
           id="path6460" />
        <path
           d="m 419.55319,309.56134 q -0.36133,1.76758 -1.41601,2.72461 -1.05469,0.94727 -2.33399,0.94727 -1.52344,0 -2.65625,-1.2793 -1.13281,-1.2793 -1.13281,-3.45703 0,-2.10938 1.25,-3.42774 1.25977,-1.31836 3.01758,-1.31836 1.31836,0 2.16797,0.70313 0.84961,0.69336 0.84961,1.44531 0,0.37109 -0.24414,0.60547 -0.23438,0.22461 -0.66407,0.22461 -0.57617,0 -0.86914,-0.37109 -0.16601,-0.20508 -0.22461,-0.78125 -0.0488,-0.57618 -0.39062,-0.87891 -0.3418,-0.29297 -0.94727,-0.29297 -0.97656,0 -1.57226,0.72266 -0.79102,0.95703 -0.79102,2.52929 0,1.60157 0.78125,2.83203 0.79102,1.22071 2.12891,1.22071 0.95703,0 1.71875,-0.6543 0.53711,-0.44922 1.04492,-1.63086 z"
           id="path6462" />
        <path
           d="m 422.3364,307.38361 q -0.01,1.99218 0.96679,3.125 0.97656,1.13281 2.29492,1.13281 0.87891,0 1.52344,-0.47852 0.6543,-0.48828 1.09375,-1.66015 l 0.30274,0.19531 q -0.20508,1.33789 -1.19141,2.44141 -0.98633,1.09375 -2.4707,1.09375 -1.61133,0 -2.76368,-1.25 -1.14257,-1.25977 -1.14257,-3.37891 0,-2.29492 1.17187,-3.57422 1.18164,-1.28906 2.95899,-1.28906 1.5039,0 2.4707,0.99609 0.9668,0.98633 0.9668,2.64649 z m 0,-0.56641 h 4.14062 q -0.0488,-0.85938 -0.20508,-1.21094 -0.24414,-0.54687 -0.73242,-0.85937 -0.47852,-0.3125 -1.00586,-0.3125 -0.81055,0 -1.45508,0.63476 -0.63476,0.625 -0.74218,1.74805 z"
           id="path6464" />
      </g>
    </g>
  </g>
  <defs
     id="defs1412">
    <clipPath
       id="pf79da2ea92">
      <rect
         x="28.942188"
         y="28.118126"
         width="292.20374"
         height="292.20374"
         id="rect1409" />
    </clipPath>
  </defs>
</svg>
